# xmcd
#
# Track frame offsets:
#	150
#	18962
#	44458
#	70152
#	95049
#	117922
#	141585
#	170900
#	195544
#	218247
#
# Disc length: 3475 seconds
#
# Revision: 0
# Processed by: cddbd v1.5.2PL0 Copyright (c) Steve Scherf et al.
# Submitted via: dBpowerAMP V4.0
#
DISCID=990d910a
DTITLE=Loreena McKennitt - Nights From The Alhambra - CD2
DYEAR=1900
DGENRE=
TTITLE0=01 Bonny Portmore
TTITLE1=02 Santiago
TTITLE2=03 Raglan Road
TTITLE3=04 All Souls Night
TTITLE4=05 The Lady Of Shalott
TTITLE5=06 The Old Ways
TTITLE6=07 Never-Ending Road
TTITLE7=08 Huron 'Beltane' Fire Dance
TTITLE8=09 Cymbeline
TTITLE9=10 Beneath A Phrygian Sky
EXTD=
EXTT0=
EXTT1=
EXTT2=
EXTT3=
EXTT4=
EXTT5=
EXTT6=
EXTT7=
EXTT8=
EXTT9=
PLAYORDER=
